<?xml version="1.0" standalone="no"?>
<!DOCTYPE svg PUBLIC "-//W3C//DTD SVG 20010904//EN"
 "http://www.w3.org/TR/2001/REC-SVG-20010904/DTD/svg10.dtd">
<svg version="1.0" xmlns="http://www.w3.org/2000/svg"
 width="500.000000pt" height="500.000000pt" viewBox="0 0 500.000000 500.000000"
 preserveAspectRatio="xMidYMid meet">

<g transform="translate(0.000000,500.000000) scale(0.100000,-0.100000)"
fill="#000000" stroke="none">
<path d="M3205 3490 c3 -6 -1 -10 -10 -10 -10 0 -13 -4 -8 -12 11 -20 13 -69
2 -62 -6 3 -8 13 -5 21 3 8 1 11 -4 8 -5 -3 -9 -17 -8 -30 1 -13 5 -22 9 -19
4 2 6 -3 5 -12 -1 -8 -8 -19 -15 -24 -9 -5 -10 -10 -2 -14 16 -10 13 -26 -5
-26 -8 0 -12 -5 -9 -10 4 -6 12 -7 18 -3 7 3 3 -3 -7 -15 l-19 -22 211 0 c143
0 212 3 212 11 0 5 -4 8 -9 5 -5 -4 -11 -2 -13 2 -4 11 -218 151 -291 190 -32
18 -55 27 -52 22z"/>
<path d="M3064 2803 c3 -3 1 -12 -5 -20 -6 -7 -8 -13 -5 -13 4 0 2 -9 -4 -19
-7 -14 -7 -22 1 -26 6 -5 4 -11 -7 -19 -15 -12 -15 -13 0 -19 18 -7 22 -27 5
-27 -5 0 -7 6 -3 13 4 6 3 9 -1 4 -12 -10 -17 -50 -7 -43 5 3 9 -2 9 -10 0 -8
-6 -13 -13 -10 -10 4 -11 -1 -4 -20 14 -36 12 -41 -5 -18 -15 19 -16 19 -13
-1 2 -11 8 -23 13 -27 6 -4 2 -8 -7 -8 -10 0 -18 -4 -18 -10 0 -5 5 -10 10
-10 7 0 7 -6 1 -19 -6 -10 -7 -21 -3 -25 3 -4 -1 -4 -11 0 -22 8 -22 -5 1 -23
9 -8 11 -12 5 -8 -7 3 -13 3 -14 -2 -4 -36 -9 -73 -15 -98 -3 -16 -7 -42 -8
-57 0 -14 -5 -24 -9 -21 -4 3 -6 -14 -3 -36 3 -24 1 -41 -5 -41 -6 0 -7 5 -3
12 4 6 3 8 -4 5 -8 -6 -10 -42 -2 -42 1 0 2 -14 3 -32 2 -25 -1 -29 -11 -20
-11 9 -13 7 -10 -9 2 -11 -2 -18 -9 -16 -7 1 -13 -3 -13 -9 0 -6 6 -9 14 -6
19 8 27 -15 10 -30 -10 -10 -13 -10 -17 0 -2 7 -4 0 -3 -15 l1 -27 612 -1
c604 0 612 0 618 20 3 11 3 25 -1 31 -5 8 -3 9 6 4 8 -5 11 -3 8 6 -3 8 2 20
11 27 12 10 13 12 1 6 -13 -7 -13 -5 -2 8 7 9 14 29 15 46 1 16 5 28 10 25 4
-2 7 4 7 14 0 10 7 28 15 40 8 12 12 29 8 39 -4 12 -3 15 5 10 11 -6 23 26 25
61 0 5 7 14 16 21 9 8 10 11 4 7 -17 -8 -16 1 3 30 12 18 13 28 5 44 -8 14 -8
22 1 27 7 5 8 3 3 -6 -5 -9 -4 -11 4 -6 9 6 9 11 -1 24 -10 12 -10 14 0 8 7
-4 12 -2 12 4 0 6 4 9 9 5 6 -3 8 6 5 20 -3 18 -1 23 10 19 11 -4 13 0 9 15
-3 13 -1 21 8 21 8 0 5 6 -7 15 -11 9 -13 13 -4 10 10 -4 19 5 27 25 9 23 9
28 0 23 -7 -4 -6 1 2 10 11 14 11 23 3 40 -6 12 -16 39 -22 60 -6 20 -16 35
-21 32 -5 -4 -9 1 -9 10 0 14 -63 15 -621 15 -342 0 -619 -3 -615 -7z"/>
<path d="M2830 1646 c0 -8 5 -18 10 -21 6 -4 8 -11 4 -16 -3 -5 -10 -6 -16 -3
-6 4 -8 -1 -4 -14 4 -13 1 -22 -9 -26 -9 -3 -13 -11 -9 -17 4 -8 9 -7 15 2 7
11 9 10 9 -3 0 -9 -6 -21 -12 -25 -7 -4 -14 -15 -14 -23 -1 -8 -5 -24 -9 -35
-6 -16 -5 -17 4 -5 9 13 11 12 11 -5 0 -12 -5 -26 -10 -31 -6 -6 -11 -33 -13
-61 -1 -28 -6 -51 -10 -50 -5 1 -13 -8 -18 -20 -4 -13 -6 -23 -4 -23 9 0 281
49 320 57 22 5 51 9 65 9 14 -1 28 4 32 9 5 6 8 5 8 -2 0 -9 7 -10 27 -2 15 6
45 11 66 11 20 0 40 4 43 9 3 5 22 6 43 3 27 -4 42 -2 53 10 12 12 18 13 22 3
5 -9 7 -9 12 1 3 6 18 12 33 12 15 0 33 6 40 13 11 10 13 10 7 0 -4 -7 -3 -13
3 -13 5 0 11 6 14 13 3 9 7 9 17 0 9 -8 20 -9 38 -2 14 5 31 8 38 5 7 -3 15 0
18 7 3 8 5 6 5 -3 1 -9 12 -15 30 -16 l30 -1 -22 18 c-12 10 -16 18 -9 19 6 0
12 -4 12 -9 0 -5 9 -11 20 -14 13 -3 20 0 20 8 0 8 5 17 10 20 7 4 8 -3 4 -22
-7 -26 -6 -27 11 -13 17 13 18 13 10 0 -8 -13 -6 -13 8 -1 9 7 15 17 12 21 -3
5 -1 12 5 15 6 4 9 1 8 -7 -2 -7 4 -13 12 -13 8 0 18 -4 22 -10 5 -6 8 -5 9 3
3 27 4 31 13 39 5 4 7 4 4 -2 -3 -5 0 -16 8 -23 8 -7 14 -8 14 -2 0 5 4 9 9 7
5 -1 10 3 11 8 1 6 7 17 14 25 16 20 86 179 86 198 0 1 -265 2 -590 2 -507 0
-590 -2 -590 -14z"/>
</g>
</svg>
